<svg fill="#7c534d" xmlns="http://www.w3.org/2000/svg" xmlns:xlink="http://www.w3.org/1999/xlink" version="1.1" x="0px" y="0px" viewBox="0 0 52 65" enable-background="new 0 0 52 52" xml:space="preserve"><g><path d="M30.0984497,27.0002441C32.0354614,22.3094482,33,18.9401855,33,16.7999878C33,8.6400146,26.2700195,2,18,2   S3,8.6400146,3,16.7999878c0,6.0111694,8.0429688,21.5692749,11.9997559,28.8557739V30.0002441c0-1.6542969,1.3457031-3,3-3   H30.0984497z M10,16.7999878c0-4.4099731,3.5899658-8,8-8c4.4099731,0,8,3.5900269,8,8c0,4.4100342-3.5900269,8-8,8   C13.5899658,24.7999878,10,21.210022,10,16.7999878z"/><polygon points="32.9997559,41.677002 47.1992798,29 18.9039917,29  "/><path d="M33.6540527,43.7561035c-0.1875,0.1625977-0.4208984,0.2441406-0.6542969,0.2441406   s-0.4667969-0.081543-0.6542969-0.2441406l-3.3857422-2.9326172L18.7890015,50H48   c0.0320435,0,0.0591431-0.0151367,0.0903931-0.0180664l-11.0505981-9.1584473L33.6540527,43.7561035z"/><polygon points="17,30.0266724 17,48.8665771 27.5244751,39.4428101  "/><polygon points="38.5185547,39.432312 49,48.1879883 49,30.1160278  "/></g></svg>