<svg fill="#4477cf" xmlns="http://www.w3.org/2000/svg" xmlns:xlink="http://www.w3.org/1999/xlink" version="1.1" x="0px" y="0px" viewBox="0 0 512 640" style="enable-background:new 0 0 512 512;" xml:space="preserve"><g><g><path style="" d="M396.596,268.047c16.626-26.297,25.44-56.973,25.44-87.664    C422.036,89.429,347.893,16,256.006,16C164.137,16,89.964,89.429,89.964,180.383c0,30.69,8.872,61.367,25.468,87.664l1.116,1.103    l110.7,176.459c1.087,2.175,2.205,3.262,4.407,6.553L259.341,496l136.14-226.851C396.596,269.149,396.596,268.047,396.596,268.047    L396.596,268.047z M188.488,180.383c0-37.258,30.991-67.934,67.518-67.934c37.659,0,68.621,30.675,68.621,67.934    c0,37.271-30.962,66.846-68.621,66.846C219.479,247.229,188.488,217.655,188.488,180.383L188.488,180.383z" fill-rule="evenodd" clip-rule="evenodd"/></g></g></svg>